<svg width="84" height="68" viewBox="0 0 84 68" fill="none" xmlns="http://www.w3.org/2000/svg">
<path d="M83.6668 8.16675C80.5349 9.52548 77.2228 10.4237 73.8335 10.8334C77.4092 8.69725 80.0888 5.33667 81.3752 1.37508C78.015 3.37534 74.3367 4.78465 70.5002 5.54175C67.9358 2.7608 64.5209 0.909648 60.791 0.278628C57.0612 -0.352393 53.2274 0.272407 49.891 2.05504C46.5545 3.83767 43.9041 6.67729 42.3553 10.1286C40.8066 13.5798 40.4472 17.4475 41.3335 21.1251C34.5394 20.7814 27.8937 19.0124 21.8279 15.9328C15.7621 12.8533 10.412 8.53214 6.12516 3.25008C4.62157 5.87578 3.83149 8.84934 3.8335 11.8751C3.82816 14.685 4.51773 17.4527 5.84081 19.9316C7.16389 22.4105 9.07941 24.5239 11.4168 26.0834C8.70007 26.0095 6.04135 25.2805 3.66683 23.9584V24.1667C3.68719 28.1038 5.06681 31.913 7.57231 34.9499C10.0778 37.9869 13.5554 40.0653 17.4168 40.8334C15.9304 41.2858 14.3871 41.5243 12.8335 41.5418C11.758 41.5292 10.6853 41.4317 9.62516 41.2501C10.7248 44.6368 12.8528 47.5965 15.713 49.7174C18.5732 51.8383 22.0234 53.0149 25.5835 53.0834C19.5718 57.8137 12.1497 60.3953 4.50016 60.4168C3.10739 60.4213 1.71573 60.3378 0.333496 60.1668C8.14361 65.2095 17.2452 67.8864 26.5418 67.8751C32.9572 67.9417 39.3216 66.7293 45.2631 64.3088C51.2047 61.8882 56.6044 58.3079 61.1468 53.7772C65.6893 49.2464 69.2833 43.8559 71.7192 37.9205C74.155 31.9852 75.3837 25.6239 75.3335 19.2084C75.3335 18.5001 75.3335 17.7501 75.3335 17.0001C78.6031 14.5618 81.423 11.5727 83.6668 8.16675Z" fill="#C4C4C4"/>
</svg>